<svg xmlns="http://www.w3.org/2000/svg" viewBox="0 0 1344.08 497.63"><defs><style>.cls-1,.cls-2,.cls-3,.cls-4{fill:none;stroke:#155aff;stroke-linecap:round;}.cls-1,.cls-2,.cls-3{stroke-linejoin:round;stroke-width:16px;}.cls-1{opacity:0.8;}.cls-2{opacity:0.6;}.cls-4{stroke-linejoin:bevel;stroke-width:60px;}.cls-5,.cls-7{font-size:126.37px;font-family:SpaceGrotesk-Bold, Space Grotesk;font-weight:700;}.cls-5{letter-spacing:0.25em;}.cls-6{letter-spacing:0.24em;}.cls-7{fill:#155aff;letter-spacing:0.11em;}.cls-8,.cls-9{font-family:SpaceGrotesk-Light, Space Grotesk;font-weight:300;fill:#000;}.cls-8{letter-spacing:0.09em;}</style></defs><g id="Calque_1" data-name="Calque 1"><path class="cls-1" d="M1025.8,136q41.06,88.2,0,176.58" transform="translate(-27.35 -25.37)"/><path class="cls-2" d="M1062.53,107.81q55.11,118.33,0,237" transform="translate(-27.35 -25.37)"/><path class="cls-3" d="M996.62,179.25q20.94,45,0,90.05" transform="translate(-27.35 -25.37)"/><path class="cls-1" d="M349.59,136q-41.05,88.2,0,176.58" transform="translate(-27.35 -25.37)"/><path class="cls-2" d="M312.86,107.81q-55.11,118.33,0,237" transform="translate(-27.35 -25.37)"/><path class="cls-3" d="M378.77,179.25q-20.94,45,0,90.05" transform="translate(-27.35 -25.37)"/></g><g id="Calque_6" data-name="Calque 6"><circle cx="660.9" cy="199.65" r="56.87"/><path d="M750,372.13c-69.24-63.12-54.44-62.94-123.57,0-6,5.35-10.24,13.26-6.12,21.6,1.19,2.41,2.27,4.82,4.23,6.56,32.28,28.57,48.22,72.38,63.68,116.63,15.36-44,31.2-87.55,63.11-116.13a16.23,16.23,0,0,0,5.25-9A21.2,21.2,0,0,0,750,372.13Z" transform="translate(-27.35 -25.37)"/><path class="cls-4" d="M534.94,304a173.12,173.12,0,1,1,311.51.35" transform="translate(-27.35 -25.37)"/></g><g id="Calque_5" data-name="Calque 5"><text class="cls-5" transform="translate(0 463)">TR<tspan class="cls-6" x="217.35" y="0">A</tspan><tspan x="328.3" y="0">CK </tspan></text><text class="cls-7" transform="translate(754.71 462.43)"> <tspan class="cls-8" x="46" y="0">L</tspan><tspan class="cls-9" x="126.75" y="0">OISIRS</tspan></text></g></svg>